<svg width="532" height="185" viewBox="0 0 532 185" fill="none" xmlns="http://www.w3.org/2000/svg">
<mask id="path-1-outside-1_516_58" maskUnits="userSpaceOnUse" x="0.350586" y="39.032" width="335" height="55" fill="black">
<rect fill="white" x="0.350586" y="39.032" width="335" height="55"/>
<path d="M63.6226 51.904V81.28C63.6226 82.816 63.6466 84.088 63.6946 85.096C63.7906 86.056 63.9346 86.752 64.1266 87.184C64.2706 87.472 64.5586 87.688 64.9906 87.832C65.4706 87.976 66.1666 88.096 67.0786 88.192L69.7426 88.336V91.216C69.2626 91.216 68.7346 91.192 68.1586 91.144C67.6306 91.144 67.0786 91.144 66.5026 91.144C65.3026 91.096 64.0306 91.048 62.6866 91C61.3906 91 60.0226 91 58.5826 91C57.1426 91 55.7506 91 54.4066 91C53.0626 91.048 51.7906 91.096 50.5906 91.144C50.0146 91.144 49.4386 91.144 48.8626 91.144C48.3346 91.192 47.8306 91.216 47.3506 91.216V88.336L50.0146 88.12C50.9746 88.072 51.6706 87.976 52.1026 87.832C52.5346 87.688 52.8226 87.472 52.9666 87.184C53.2066 86.752 53.3506 86.056 53.3986 85.096C53.4466 84.088 53.4706 82.84 53.4706 81.352V51.616H53.3266L38.6386 82.216C38.4946 82.6 38.3266 82.984 38.1346 83.368C37.9426 83.704 37.7746 84.04 37.6306 84.376C37.4866 84.664 37.3426 84.952 37.1986 85.24C37.0546 85.528 36.9106 85.84 36.7666 86.176C36.3346 87.136 35.9026 88.096 35.4706 89.056C35.0386 90.016 34.6546 90.904 34.3186 91.72H31.8706C31.6786 91.24 31.4866 90.76 31.2946 90.28C31.1026 89.8 30.8866 89.296 30.6466 88.768C30.4546 88.288 30.2386 87.808 29.9986 87.328C29.7586 86.8 29.5186 86.296 29.2786 85.816L12.8626 51.544H12.7186V81.28C12.7186 82.816 12.7426 84.088 12.7906 85.096C12.8866 86.056 13.0306 86.752 13.2226 87.184C13.4146 87.52 13.7266 87.784 14.1586 87.976C14.5906 88.168 15.2626 88.312 16.1746 88.408L18.8386 88.552V91.216C18.4066 91.216 17.9506 91.192 17.4706 91.144C17.0386 91.144 16.5826 91.144 16.1026 91.144C15.1906 91.096 14.2786 91.048 13.3666 91C12.4546 91 11.5426 91 10.6306 91C9.95859 91 9.26259 91 8.54259 91C7.87059 91.048 7.19859 91.072 6.52659 91.072C6.28659 91.072 6.04659 91.072 5.80659 91.072C5.56659 91.12 5.32659 91.144 5.08659 91.144C4.65459 91.144 4.19859 91.144 3.71859 91.144C3.28659 91.192 2.83059 91.216 2.35059 91.216V88.552L5.01459 88.336C5.97459 88.288 6.64659 88.168 7.03059 87.976C7.46259 87.784 7.77459 87.52 7.96659 87.184C8.20659 86.752 8.35059 86.056 8.39859 85.096C8.44659 84.088 8.47059 82.84 8.47059 81.352V51.904C8.47059 50.416 8.44659 49.192 8.39859 48.232C8.35059 47.272 8.20659 46.576 7.96659 46.144C7.77459 45.76 7.46259 45.472 7.03059 45.28C6.64659 45.088 5.97459 44.968 5.01459 44.92L2.35059 44.632V41.968C2.83059 42.016 3.31059 42.064 3.79059 42.112C4.27059 42.112 4.75059 42.112 5.23059 42.112C6.19059 42.16 7.15059 42.208 8.11059 42.256C9.07059 42.256 10.0306 42.256 10.9906 42.256C11.9506 42.256 12.9106 42.256 13.8706 42.256C14.8306 42.208 15.7906 42.16 16.7506 42.112C17.2306 42.112 17.7106 42.112 18.1906 42.112C18.6706 42.064 19.1506 42.04 19.6306 42.04C19.9666 42.808 20.3746 43.744 20.8546 44.848C21.3826 45.904 21.9106 47.008 22.4386 48.16C22.4386 48.16 22.4386 48.184 22.4386 48.232C22.4866 48.232 22.5106 48.256 22.5106 48.304C22.9906 49.264 23.4466 50.224 23.8786 51.184C24.3106 52.096 24.6946 52.912 25.0306 53.632L36.4066 77.32L49.5826 50.104C49.8226 49.624 50.0626 49.12 50.3026 48.592C50.5906 48.016 50.8546 47.44 51.0946 46.864C51.4306 46.048 51.7666 45.232 52.1026 44.416C52.4386 43.6 52.7746 42.808 53.1106 42.04C53.6866 42.04 54.2386 42.064 54.7666 42.112C55.3426 42.112 55.8706 42.112 56.3506 42.112C57.3586 42.16 58.2706 42.208 59.0866 42.256C59.9506 42.256 60.7186 42.256 61.3906 42.256C62.1106 42.256 62.8786 42.256 63.6946 42.256C64.5586 42.208 65.4706 42.16 66.4306 42.112C66.9586 42.112 67.4866 42.112 68.0146 42.112C68.5906 42.064 69.1666 42.04 69.7426 42.04V44.632L67.0786 44.848C66.1666 44.944 65.4946 45.088 65.0626 45.28C64.6306 45.472 64.3186 45.76 64.1266 46.144C63.9346 46.576 63.7906 47.272 63.6946 48.232C63.6466 49.192 63.6226 50.44 63.6226 51.976V51.904ZM105.815 76.168H87.7426L84.7186 84.232C84.6226 84.616 84.5266 84.952 84.4306 85.24C84.3826 85.528 84.3586 85.792 84.3586 86.032C84.4066 86.8 84.6466 87.376 85.0786 87.76C85.5106 88.144 85.9666 88.36 86.4466 88.408L90.0466 88.552V91.216C89.4706 91.216 88.9186 91.192 88.3906 91.144C87.8626 91.144 87.3586 91.144 86.8786 91.144C85.9186 91.096 85.0306 91.048 84.2146 91C83.3986 91 82.6306 91 81.9106 91C81.2386 91 80.4706 91 79.6066 91C78.7906 91.048 77.9026 91.096 76.9426 91.144C76.4626 91.144 75.9586 91.144 75.4306 91.144C74.9026 91.192 74.3506 91.216 73.7746 91.216V88.552L75.9346 88.336C76.8946 88.288 77.6866 87.832 78.3106 86.968C78.9826 86.104 79.5346 85.144 79.9666 84.088L92.9986 52.48L94.8706 47.512L96.0226 44.56L97.1026 41.608H102.215L120.863 85.168C121.247 86.128 121.727 86.872 122.303 87.4C122.879 87.928 123.719 88.264 124.823 88.408L126.551 88.552V91.216C125.735 91.216 124.967 91.192 124.247 91.144C123.527 91.144 122.831 91.144 122.159 91.144C120.815 91.096 119.591 91.048 118.487 91C117.383 91 116.351 91 115.391 91C114.479 91 113.447 91 112.295 91C111.191 91.048 109.967 91.096 108.623 91.144C107.951 91.144 107.255 91.144 106.535 91.144C105.815 91.192 105.047 91.216 104.231 91.216V88.552L108.047 88.336C108.431 88.336 108.767 88.168 109.055 87.832C109.343 87.448 109.487 86.944 109.487 86.32C109.487 86.08 109.439 85.792 109.343 85.456C109.295 85.12 109.199 84.784 109.055 84.448L105.815 76.168ZM96.6706 53.848L89.4706 72.136H104.159L96.6706 53.848ZM137.014 51.904C137.014 50.416 136.99 49.192 136.942 48.232C136.894 47.272 136.75 46.576 136.51 46.144C136.318 45.76 136.006 45.472 135.574 45.28C135.19 45.088 134.518 44.968 133.558 44.92L130.894 44.632V41.968C131.71 42.016 132.478 42.064 133.198 42.112C133.918 42.112 134.638 42.112 135.358 42.112C136.702 42.16 137.998 42.208 139.246 42.256C140.542 42.256 141.79 42.256 142.99 42.256C144.238 42.256 145.462 42.256 146.662 42.256C147.862 42.208 149.086 42.184 150.334 42.184C150.718 42.184 151.102 42.184 151.486 42.184C151.918 42.136 152.326 42.112 152.71 42.112C153.526 42.112 154.342 42.112 155.158 42.112C155.974 42.064 156.79 42.04 157.606 42.04C157.702 42.04 157.798 42.04 157.894 42.04C158.038 42.04 158.182 42.04 158.326 42.04C161.878 42.04 164.998 42.784 167.686 44.272C170.374 45.76 171.718 48.568 171.718 52.696C171.718 55.864 170.662 58.504 168.55 60.616C166.486 62.728 163.966 64.336 160.99 65.44L174.022 85.096C174.262 85.528 174.574 85.936 174.958 86.32C175.342 86.704 175.726 87.064 176.11 87.4C176.35 87.592 176.638 87.76 176.974 87.904C177.358 88 177.79 88.12 178.27 88.264C178.414 88.264 178.534 88.288 178.63 88.336C178.774 88.336 178.918 88.36 179.062 88.408V91.216C178.678 91.216 178.294 91.192 177.91 91.144C177.526 91.144 177.142 91.144 176.758 91.144C176.566 91.144 176.374 91.12 176.182 91.072C175.99 91.072 175.798 91.072 175.606 91.072C174.982 91.072 174.382 91.048 173.806 91C173.23 91 172.654 91 172.078 91C171.358 91 170.638 91 169.918 91C169.198 91.048 168.478 91.096 167.758 91.144C167.422 91.144 167.062 91.144 166.678 91.144C166.342 91.192 165.982 91.216 165.598 91.216L149.47 66.232L149.974 64.936C150.214 65.032 150.43 65.08 150.622 65.08C150.814 65.08 151.006 65.08 151.198 65.08C154.174 65.032 156.622 64.096 158.542 62.272C160.51 60.4 161.494 57.88 161.494 54.712C161.494 51.736 160.582 49.48 158.758 47.944C156.934 46.408 154.606 45.64 151.774 45.64C151.486 45.64 151.198 45.64 150.91 45.64C150.622 45.64 150.334 45.664 150.046 45.712C149.518 45.712 148.99 45.76 148.462 45.856C147.982 45.952 147.55 46.096 147.166 46.288V81.28C147.166 82.816 147.19 84.088 147.238 85.096C147.334 86.056 147.478 86.752 147.67 87.184C147.814 87.472 148.102 87.688 148.534 87.832C149.014 87.976 149.71 88.096 150.622 88.192L153.286 88.336V91.216C152.806 91.216 152.278 91.192 151.702 91.144C151.174 91.144 150.622 91.144 150.046 91.144C148.846 91.096 147.574 91.048 146.23 91C144.934 91 143.566 91 142.126 91C140.686 91 139.294 91 137.95 91C136.606 91.048 135.334 91.096 134.134 91.144C133.558 91.144 132.982 91.144 132.406 91.144C131.878 91.192 131.374 91.216 130.894 91.216V88.336L133.558 88.12C134.518 88.072 135.214 87.976 135.646 87.832C136.078 87.688 136.366 87.472 136.51 87.184C136.75 86.752 136.894 86.056 136.942 85.096C136.99 84.088 137.014 82.84 137.014 81.352V51.904ZM229.871 84.736L228.287 88.264C225.983 89.704 223.535 90.688 220.943 91.216C218.351 91.792 215.711 92.128 213.023 92.224C212.831 92.224 212.615 92.224 212.375 92.224C212.183 92.224 211.967 92.224 211.727 92.224C203.519 92.224 196.703 89.992 191.279 85.528C185.903 81.016 183.215 74.464 183.215 65.872C183.215 57.568 186.095 51.352 191.855 47.224C197.615 43.096 204.335 41.032 212.015 41.032C213.023 41.032 214.007 41.056 214.967 41.104C215.927 41.104 216.863 41.152 217.775 41.248C219.599 41.44 221.471 41.776 223.391 42.256C225.311 42.736 227.399 43.456 229.655 44.416L230.087 45.136C229.895 45.904 229.703 46.816 229.511 47.872C229.367 48.928 229.199 50.032 229.007 51.184C228.911 52.096 228.815 53.008 228.719 53.92C228.623 54.784 228.527 55.552 228.431 56.224L225.623 56.152L225.263 49.96C223.487 48.184 221.495 46.936 219.287 46.216C217.079 45.448 214.751 45.064 212.303 45.064C206.351 45.064 201.815 46.96 198.695 50.752C195.575 54.496 194.015 59.224 194.015 64.936C194.015 71.512 195.839 76.936 199.487 81.208C203.183 85.48 208.439 87.616 215.255 87.616C216.167 87.616 217.127 87.568 218.135 87.472C219.143 87.328 220.175 87.136 221.231 86.896C222.623 86.56 223.991 86.152 225.335 85.672C226.727 85.144 227.951 84.568 229.007 83.944L229.871 84.736ZM250.872 51.904V63.28C251.4 63.376 252.072 63.448 252.888 63.496C253.752 63.496 255.024 63.496 256.704 63.496L267.216 63.424C268.896 63.472 270.144 63.496 270.96 63.496C271.824 63.448 272.52 63.4 273.048 63.352V51.904C273.048 50.416 273.024 49.192 272.976 48.232C272.928 47.272 272.784 46.576 272.544 46.144C272.4 45.856 272.112 45.64 271.68 45.496C271.248 45.304 270.552 45.184 269.592 45.136L266.928 44.848V41.968C267.408 42.016 267.912 42.064 268.44 42.112C269.016 42.112 269.592 42.112 270.168 42.112C271.368 42.16 272.64 42.208 273.984 42.256C275.328 42.256 276.72 42.256 278.16 42.256C279.6 42.256 280.968 42.256 282.264 42.256C283.608 42.208 284.88 42.16 286.08 42.112C286.656 42.112 287.208 42.112 287.736 42.112C288.312 42.064 288.84 42.04 289.32 42.04V44.848L286.656 45.064C285.744 45.16 285.048 45.304 284.568 45.496C284.136 45.64 283.848 45.856 283.704 46.144C283.512 46.576 283.368 47.272 283.272 48.232C283.224 49.192 283.2 50.44 283.2 51.976V81.28C283.2 82.816 283.224 84.088 283.272 85.096C283.368 86.056 283.512 86.752 283.704 87.184C283.848 87.472 284.136 87.688 284.568 87.832C285.048 87.976 285.744 88.096 286.656 88.192L289.32 88.336V91.216C288.84 91.216 288.312 91.192 287.736 91.144C287.208 91.144 286.656 91.144 286.08 91.144C284.88 91.096 283.608 91.048 282.264 91C280.968 91 279.6 91 278.16 91C276.72 91 275.328 91 273.984 91C272.64 91.048 271.368 91.096 270.168 91.144C269.592 91.144 269.016 91.144 268.44 91.144C267.912 91.192 267.408 91.216 266.928 91.216V88.336L269.592 88.12C270.552 88.072 271.248 87.976 271.68 87.832C272.112 87.688 272.4 87.472 272.544 87.184C272.784 86.752 272.928 86.056 272.976 85.096C273.024 84.088 273.048 82.84 273.048 81.352V67.6C272.52 67.6 271.824 67.6 270.96 67.6C270.144 67.552 268.896 67.528 267.216 67.528L256.704 67.456C255.024 67.504 253.752 67.552 252.888 67.6C252.072 67.6 251.4 67.624 250.872 67.672V81.28C250.872 82.816 250.896 84.088 250.944 85.096C251.04 86.056 251.184 86.752 251.376 87.184C251.52 87.472 251.808 87.688 252.24 87.832C252.72 87.976 253.416 88.096 254.328 88.192L256.992 88.336V91.216C256.512 91.216 255.984 91.192 255.408 91.144C254.88 91.144 254.328 91.144 253.752 91.144C252.552 91.096 251.28 91.048 249.936 91C248.64 91 247.272 91 245.832 91C244.392 91 243 91 241.656 91C240.312 91.048 239.04 91.096 237.84 91.144C237.264 91.144 236.688 91.144 236.112 91.144C235.584 91.192 235.08 91.216 234.6 91.216V88.336L237.264 88.12C238.224 88.072 238.92 87.976 239.352 87.832C239.784 87.688 240.072 87.472 240.216 87.184C240.456 86.752 240.6 86.056 240.648 85.096C240.696 84.088 240.72 82.84 240.72 81.352V51.904C240.72 50.416 240.696 49.192 240.648 48.232C240.6 47.272 240.456 46.576 240.216 46.144C240.072 45.856 239.784 45.64 239.352 45.496C238.92 45.304 238.224 45.184 237.264 45.136L234.6 44.848V41.968C235.08 42.016 235.584 42.064 236.112 42.112C236.688 42.112 237.264 42.112 237.84 42.112C239.04 42.16 240.312 42.208 241.656 42.256C243 42.256 244.392 42.256 245.832 42.256C247.272 42.256 248.64 42.256 249.936 42.256C251.28 42.208 252.552 42.16 253.752 42.112C254.328 42.112 254.88 42.112 255.408 42.112C255.984 42.064 256.512 42.04 256.992 42.04V44.848L254.328 45.064C253.416 45.16 252.72 45.304 252.24 45.496C251.808 45.64 251.52 45.856 251.376 46.144C251.184 46.576 251.04 47.272 250.944 48.232C250.896 49.192 250.872 50.44 250.872 51.976V51.904ZM311.064 46.36V63.64C311.88 63.736 312.696 63.808 313.512 63.856C314.328 63.856 315.12 63.856 315.888 63.856L320.64 63.784C321.888 63.832 322.872 63.784 323.592 63.64C324.312 63.448 324.696 63.016 324.744 62.344L325.176 58.168H328.056C328.056 58.648 328.032 59.104 327.984 59.536C327.984 59.968 327.984 60.4 327.984 60.832C327.984 61.024 327.96 61.24 327.912 61.48C327.912 61.672 327.912 61.864 327.912 62.056C327.912 62.728 327.888 63.376 327.84 64C327.84 64.624 327.84 65.272 327.84 65.944C327.84 66.808 327.84 67.672 327.84 68.536C327.888 69.4 327.936 70.264 327.984 71.128C327.984 71.56 327.984 71.992 327.984 72.424C328.032 72.856 328.056 73.288 328.056 73.72L325.176 73.648L324.744 70.048C324.648 69.088 324.24 68.416 323.52 68.032C322.848 67.648 321.888 67.456 320.64 67.456L315.888 67.384C315.12 67.432 314.328 67.48 313.512 67.528C312.696 67.528 311.88 67.576 311.064 67.672V86.824C312.6 86.92 314.136 86.992 315.672 87.04C317.208 87.088 318.744 87.112 320.28 87.112C320.76 87.112 321.264 87.112 321.792 87.112C322.32 87.064 322.848 87.016 323.376 86.968C324.576 86.872 325.704 86.752 326.76 86.608C327.816 86.416 328.512 86.224 328.848 86.032C328.896 86.032 328.944 86.032 328.992 86.032C329.04 85.984 329.064 85.936 329.064 85.888L330.72 79.048H333.528L332.736 90.424L332.376 91C331.176 91.096 329.76 91.168 328.128 91.216C326.544 91.264 324.912 91.288 323.232 91.288C322.848 91.288 322.44 91.288 322.008 91.288C321.624 91.288 321.24 91.288 320.856 91.288C319.704 91.288 318.6 91.288 317.544 91.288C316.488 91.288 315.528 91.264 314.664 91.216C314.184 91.216 313.68 91.192 313.152 91.144C312.672 91.144 312.192 91.144 311.712 91.144C310.752 91.096 309.768 91.048 308.76 91C307.8 91 306.816 91 305.808 91C304.8 91 303.792 91 302.784 91C301.824 91.048 300.864 91.096 299.904 91.144C299.424 91.144 298.944 91.144 298.464 91.144C298.032 91.192 297.6 91.216 297.168 91.216V89.56L299.472 88.264C300.048 87.976 300.432 87.52 300.624 86.896C300.816 86.224 300.912 85.336 300.912 84.232V51.904C300.912 50.416 300.888 49.192 300.84 48.232C300.792 47.272 300.648 46.576 300.408 46.144C300.216 45.76 299.904 45.472 299.472 45.28C299.088 45.088 298.416 44.968 297.456 44.92L294.792 44.632V41.968C295.608 42.016 296.376 42.064 297.096 42.112C297.816 42.112 298.512 42.112 299.184 42.112C300.528 42.16 301.776 42.208 302.928 42.256C304.08 42.256 305.112 42.256 306.024 42.256C308.28 42.256 310.344 42.256 312.216 42.256C314.088 42.208 315.816 42.16 317.4 42.112C318.168 42.112 318.912 42.112 319.632 42.112C320.4 42.064 321.12 42.04 321.792 42.04C322.176 42.04 322.536 42.04 322.872 42.04C323.208 42.04 323.544 42.016 323.88 41.968C324.216 41.968 324.528 41.968 324.816 41.968C325.152 41.968 325.488 41.968 325.824 41.968C326.112 41.968 326.4 41.968 326.688 41.968C326.976 41.968 327.24 41.992 327.48 42.04C327.96 42.04 328.416 42.04 328.848 42.04C329.28 42.04 329.712 42.064 330.144 42.112C330.528 42.112 330.888 42.136 331.224 42.184C331.608 42.184 331.968 42.208 332.304 42.256L332.736 42.688L331.728 52.912H329.136L328.56 47.512C328.512 47.128 327.888 46.84 326.688 46.648C325.536 46.456 324.264 46.336 322.872 46.288C322.44 46.24 321.984 46.216 321.504 46.216C321.072 46.216 320.664 46.216 320.28 46.216C318.744 46.216 317.208 46.24 315.672 46.288C314.136 46.288 312.6 46.336 311.064 46.432V46.36Z"/>
</mask>
<path d="M63.6226 51.904V81.28C63.6226 82.816 63.6466 84.088 63.6946 85.096C63.7906 86.056 63.9346 86.752 64.1266 87.184C64.2706 87.472 64.5586 87.688 64.9906 87.832C65.4706 87.976 66.1666 88.096 67.0786 88.192L69.7426 88.336V91.216C69.2626 91.216 68.7346 91.192 68.1586 91.144C67.6306 91.144 67.0786 91.144 66.5026 91.144C65.3026 91.096 64.0306 91.048 62.6866 91C61.3906 91 60.0226 91 58.5826 91C57.1426 91 55.7506 91 54.4066 91C53.0626 91.048 51.7906 91.096 50.5906 91.144C50.0146 91.144 49.4386 91.144 48.8626 91.144C48.3346 91.192 47.8306 91.216 47.3506 91.216V88.336L50.0146 88.12C50.9746 88.072 51.6706 87.976 52.1026 87.832C52.5346 87.688 52.8226 87.472 52.9666 87.184C53.2066 86.752 53.3506 86.056 53.3986 85.096C53.4466 84.088 53.4706 82.84 53.4706 81.352V51.616H53.3266L38.6386 82.216C38.4946 82.6 38.3266 82.984 38.1346 83.368C37.9426 83.704 37.7746 84.04 37.6306 84.376C37.4866 84.664 37.3426 84.952 37.1986 85.24C37.0546 85.528 36.9106 85.84 36.7666 86.176C36.3346 87.136 35.9026 88.096 35.4706 89.056C35.0386 90.016 34.6546 90.904 34.3186 91.72H31.8706C31.6786 91.24 31.4866 90.76 31.2946 90.28C31.1026 89.8 30.8866 89.296 30.6466 88.768C30.4546 88.288 30.2386 87.808 29.9986 87.328C29.7586 86.8 29.5186 86.296 29.2786 85.816L12.8626 51.544H12.7186V81.28C12.7186 82.816 12.7426 84.088 12.7906 85.096C12.8866 86.056 13.0306 86.752 13.2226 87.184C13.4146 87.52 13.7266 87.784 14.1586 87.976C14.5906 88.168 15.2626 88.312 16.1746 88.408L18.8386 88.552V91.216C18.4066 91.216 17.9506 91.192 17.4706 91.144C17.0386 91.144 16.5826 91.144 16.1026 91.144C15.1906 91.096 14.2786 91.048 13.3666 91C12.4546 91 11.5426 91 10.6306 91C9.95859 91 9.26259 91 8.54259 91C7.87059 91.048 7.19859 91.072 6.52659 91.072C6.28659 91.072 6.04659 91.072 5.80659 91.072C5.56659 91.12 5.32659 91.144 5.08659 91.144C4.65459 91.144 4.19859 91.144 3.71859 91.144C3.28659 91.192 2.83059 91.216 2.35059 91.216V88.552L5.01459 88.336C5.97459 88.288 6.64659 88.168 7.03059 87.976C7.46259 87.784 7.77459 87.52 7.96659 87.184C8.20659 86.752 8.35059 86.056 8.39859 85.096C8.44659 84.088 8.47059 82.84 8.47059 81.352V51.904C8.47059 50.416 8.44659 49.192 8.39859 48.232C8.35059 47.272 8.20659 46.576 7.96659 46.144C7.77459 45.76 7.46259 45.472 7.03059 45.28C6.64659 45.088 5.97459 44.968 5.01459 44.92L2.35059 44.632V41.968C2.83059 42.016 3.31059 42.064 3.79059 42.112C4.27059 42.112 4.75059 42.112 5.23059 42.112C6.19059 42.16 7.15059 42.208 8.11059 42.256C9.07059 42.256 10.0306 42.256 10.9906 42.256C11.9506 42.256 12.9106 42.256 13.8706 42.256C14.8306 42.208 15.7906 42.16 16.7506 42.112C17.2306 42.112 17.7106 42.112 18.1906 42.112C18.6706 42.064 19.1506 42.04 19.6306 42.04C19.9666 42.808 20.3746 43.744 20.8546 44.848C21.3826 45.904 21.9106 47.008 22.4386 48.16C22.4386 48.16 22.4386 48.184 22.4386 48.232C22.4866 48.232 22.5106 48.256 22.5106 48.304C22.9906 49.264 23.4466 50.224 23.8786 51.184C24.3106 52.096 24.6946 52.912 25.0306 53.632L36.4066 77.32L49.5826 50.104C49.8226 49.624 50.0626 49.12 50.3026 48.592C50.5906 48.016 50.8546 47.44 51.0946 46.864C51.4306 46.048 51.7666 45.232 52.1026 44.416C52.4386 43.6 52.7746 42.808 53.1106 42.04C53.6866 42.04 54.2386 42.064 54.7666 42.112C55.3426 42.112 55.8706 42.112 56.3506 42.112C57.3586 42.16 58.2706 42.208 59.0866 42.256C59.9506 42.256 60.7186 42.256 61.3906 42.256C62.1106 42.256 62.8786 42.256 63.6946 42.256C64.5586 42.208 65.4706 42.16 66.4306 42.112C66.9586 42.112 67.4866 42.112 68.0146 42.112C68.5906 42.064 69.1666 42.04 69.7426 42.04V44.632L67.0786 44.848C66.1666 44.944 65.4946 45.088 65.0626 45.28C64.6306 45.472 64.3186 45.76 64.1266 46.144C63.9346 46.576 63.7906 47.272 63.6946 48.232C63.6466 49.192 63.6226 50.44 63.6226 51.976V51.904ZM105.815 76.168H87.7426L84.7186 84.232C84.6226 84.616 84.5266 84.952 84.4306 85.24C84.3826 85.528 84.3586 85.792 84.3586 86.032C84.4066 86.8 84.6466 87.376 85.0786 87.76C85.5106 88.144 85.9666 88.36 86.4466 88.408L90.0466 88.552V91.216C89.4706 91.216 88.9186 91.192 88.3906 91.144C87.8626 91.144 87.3586 91.144 86.8786 91.144C85.9186 91.096 85.0306 91.048 84.2146 91C83.3986 91 82.6306 91 81.9106 91C81.2386 91 80.4706 91 79.6066 91C78.7906 91.048 77.9026 91.096 76.9426 91.144C76.4626 91.144 75.9586 91.144 75.4306 91.144C74.9026 91.192 74.3506 91.216 73.7746 91.216V88.552L75.9346 88.336C76.8946 88.288 77.6866 87.832 78.3106 86.968C78.9826 86.104 79.5346 85.144 79.9666 84.088L92.9986 52.48L94.8706 47.512L96.0226 44.56L97.1026 41.608H102.215L120.863 85.168C121.247 86.128 121.727 86.872 122.303 87.4C122.879 87.928 123.719 88.264 124.823 88.408L126.551 88.552V91.216C125.735 91.216 124.967 91.192 124.247 91.144C123.527 91.144 122.831 91.144 122.159 91.144C120.815 91.096 119.591 91.048 118.487 91C117.383 91 116.351 91 115.391 91C114.479 91 113.447 91 112.295 91C111.191 91.048 109.967 91.096 108.623 91.144C107.951 91.144 107.255 91.144 106.535 91.144C105.815 91.192 105.047 91.216 104.231 91.216V88.552L108.047 88.336C108.431 88.336 108.767 88.168 109.055 87.832C109.343 87.448 109.487 86.944 109.487 86.32C109.487 86.08 109.439 85.792 109.343 85.456C109.295 85.12 109.199 84.784 109.055 84.448L105.815 76.168ZM96.6706 53.848L89.4706 72.136H104.159L96.6706 53.848ZM137.014 51.904C137.014 50.416 136.99 49.192 136.942 48.232C136.894 47.272 136.75 46.576 136.51 46.144C136.318 45.76 136.006 45.472 135.574 45.28C135.19 45.088 134.518 44.968 133.558 44.92L130.894 44.632V41.968C131.71 42.016 132.478 42.064 133.198 42.112C133.918 42.112 134.638 42.112 135.358 42.112C136.702 42.16 137.998 42.208 139.246 42.256C140.542 42.256 141.79 42.256 142.99 42.256C144.238 42.256 145.462 42.256 146.662 42.256C147.862 42.208 149.086 42.184 150.334 42.184C150.718 42.184 151.102 42.184 151.486 42.184C151.918 42.136 152.326 42.112 152.71 42.112C153.526 42.112 154.342 42.112 155.158 42.112C155.974 42.064 156.79 42.04 157.606 42.04C157.702 42.04 157.798 42.04 157.894 42.04C158.038 42.04 158.182 42.04 158.326 42.04C161.878 42.04 164.998 42.784 167.686 44.272C170.374 45.76 171.718 48.568 171.718 52.696C171.718 55.864 170.662 58.504 168.55 60.616C166.486 62.728 163.966 64.336 160.99 65.44L174.022 85.096C174.262 85.528 174.574 85.936 174.958 86.32C175.342 86.704 175.726 87.064 176.11 87.4C176.35 87.592 176.638 87.76 176.974 87.904C177.358 88 177.79 88.12 178.27 88.264C178.414 88.264 178.534 88.288 178.63 88.336C178.774 88.336 178.918 88.36 179.062 88.408V91.216C178.678 91.216 178.294 91.192 177.91 91.144C177.526 91.144 177.142 91.144 176.758 91.144C176.566 91.144 176.374 91.12 176.182 91.072C175.99 91.072 175.798 91.072 175.606 91.072C174.982 91.072 174.382 91.048 173.806 91C173.23 91 172.654 91 172.078 91C171.358 91 170.638 91 169.918 91C169.198 91.048 168.478 91.096 167.758 91.144C167.422 91.144 167.062 91.144 166.678 91.144C166.342 91.192 165.982 91.216 165.598 91.216L149.47 66.232L149.974 64.936C150.214 65.032 150.43 65.08 150.622 65.08C150.814 65.08 151.006 65.08 151.198 65.08C154.174 65.032 156.622 64.096 158.542 62.272C160.51 60.4 161.494 57.88 161.494 54.712C161.494 51.736 160.582 49.48 158.758 47.944C156.934 46.408 154.606 45.64 151.774 45.64C151.486 45.64 151.198 45.64 150.91 45.64C150.622 45.64 150.334 45.664 150.046 45.712C149.518 45.712 148.99 45.76 148.462 45.856C147.982 45.952 147.55 46.096 147.166 46.288V81.28C147.166 82.816 147.19 84.088 147.238 85.096C147.334 86.056 147.478 86.752 147.67 87.184C147.814 87.472 148.102 87.688 148.534 87.832C149.014 87.976 149.71 88.096 150.622 88.192L153.286 88.336V91.216C152.806 91.216 152.278 91.192 151.702 91.144C151.174 91.144 150.622 91.144 150.046 91.144C148.846 91.096 147.574 91.048 146.23 91C144.934 91 143.566 91 142.126 91C140.686 91 139.294 91 137.95 91C136.606 91.048 135.334 91.096 134.134 91.144C133.558 91.144 132.982 91.144 132.406 91.144C131.878 91.192 131.374 91.216 130.894 91.216V88.336L133.558 88.12C134.518 88.072 135.214 87.976 135.646 87.832C136.078 87.688 136.366 87.472 136.51 87.184C136.75 86.752 136.894 86.056 136.942 85.096C136.99 84.088 137.014 82.84 137.014 81.352V51.904ZM229.871 84.736L228.287 88.264C225.983 89.704 223.535 90.688 220.943 91.216C218.351 91.792 215.711 92.128 213.023 92.224C212.831 92.224 212.615 92.224 212.375 92.224C212.183 92.224 211.967 92.224 211.727 92.224C203.519 92.224 196.703 89.992 191.279 85.528C185.903 81.016 183.215 74.464 183.215 65.872C183.215 57.568 186.095 51.352 191.855 47.224C197.615 43.096 204.335 41.032 212.015 41.032C213.023 41.032 214.007 41.056 214.967 41.104C215.927 41.104 216.863 41.152 217.775 41.248C219.599 41.44 221.471 41.776 223.391 42.256C225.311 42.736 227.399 43.456 229.655 44.416L230.087 45.136C229.895 45.904 229.703 46.816 229.511 47.872C229.367 48.928 229.199 50.032 229.007 51.184C228.911 52.096 228.815 53.008 228.719 53.92C228.623 54.784 228.527 55.552 228.431 56.224L225.623 56.152L225.263 49.96C223.487 48.184 221.495 46.936 219.287 46.216C217.079 45.448 214.751 45.064 212.303 45.064C206.351 45.064 201.815 46.96 198.695 50.752C195.575 54.496 194.015 59.224 194.015 64.936C194.015 71.512 195.839 76.936 199.487 81.208C203.183 85.48 208.439 87.616 215.255 87.616C216.167 87.616 217.127 87.568 218.135 87.472C219.143 87.328 220.175 87.136 221.231 86.896C222.623 86.56 223.991 86.152 225.335 85.672C226.727 85.144 227.951 84.568 229.007 83.944L229.871 84.736ZM250.872 51.904V63.28C251.4 63.376 252.072 63.448 252.888 63.496C253.752 63.496 255.024 63.496 256.704 63.496L267.216 63.424C268.896 63.472 270.144 63.496 270.96 63.496C271.824 63.448 272.52 63.4 273.048 63.352V51.904C273.048 50.416 273.024 49.192 272.976 48.232C272.928 47.272 272.784 46.576 272.544 46.144C272.4 45.856 272.112 45.64 271.68 45.496C271.248 45.304 270.552 45.184 269.592 45.136L266.928 44.848V41.968C267.408 42.016 267.912 42.064 268.44 42.112C269.016 42.112 269.592 42.112 270.168 42.112C271.368 42.16 272.64 42.208 273.984 42.256C275.328 42.256 276.72 42.256 278.16 42.256C279.6 42.256 280.968 42.256 282.264 42.256C283.608 42.208 284.88 42.16 286.08 42.112C286.656 42.112 287.208 42.112 287.736 42.112C288.312 42.064 288.84 42.04 289.32 42.04V44.848L286.656 45.064C285.744 45.16 285.048 45.304 284.568 45.496C284.136 45.64 283.848 45.856 283.704 46.144C283.512 46.576 283.368 47.272 283.272 48.232C283.224 49.192 283.2 50.44 283.2 51.976V81.28C283.2 82.816 283.224 84.088 283.272 85.096C283.368 86.056 283.512 86.752 283.704 87.184C283.848 87.472 284.136 87.688 284.568 87.832C285.048 87.976 285.744 88.096 286.656 88.192L289.32 88.336V91.216C288.84 91.216 288.312 91.192 287.736 91.144C287.208 91.144 286.656 91.144 286.08 91.144C284.88 91.096 283.608 91.048 282.264 91C280.968 91 279.6 91 278.16 91C276.72 91 275.328 91 273.984 91C272.64 91.048 271.368 91.096 270.168 91.144C269.592 91.144 269.016 91.144 268.44 91.144C267.912 91.192 267.408 91.216 266.928 91.216V88.336L269.592 88.12C270.552 88.072 271.248 87.976 271.68 87.832C272.112 87.688 272.4 87.472 272.544 87.184C272.784 86.752 272.928 86.056 272.976 85.096C273.024 84.088 273.048 82.84 273.048 81.352V67.6C272.52 67.6 271.824 67.6 270.96 67.6C270.144 67.552 268.896 67.528 267.216 67.528L256.704 67.456C255.024 67.504 253.752 67.552 252.888 67.6C252.072 67.6 251.4 67.624 250.872 67.672V81.28C250.872 82.816 250.896 84.088 250.944 85.096C251.04 86.056 251.184 86.752 251.376 87.184C251.52 87.472 251.808 87.688 252.24 87.832C252.72 87.976 253.416 88.096 254.328 88.192L256.992 88.336V91.216C256.512 91.216 255.984 91.192 255.408 91.144C254.88 91.144 254.328 91.144 253.752 91.144C252.552 91.096 251.28 91.048 249.936 91C248.64 91 247.272 91 245.832 91C244.392 91 243 91 241.656 91C240.312 91.048 239.04 91.096 237.84 91.144C237.264 91.144 236.688 91.144 236.112 91.144C235.584 91.192 235.08 91.216 234.6 91.216V88.336L237.264 88.12C238.224 88.072 238.92 87.976 239.352 87.832C239.784 87.688 240.072 87.472 240.216 87.184C240.456 86.752 240.6 86.056 240.648 85.096C240.696 84.088 240.72 82.84 240.72 81.352V51.904C240.72 50.416 240.696 49.192 240.648 48.232C240.6 47.272 240.456 46.576 240.216 46.144C240.072 45.856 239.784 45.64 239.352 45.496C238.92 45.304 238.224 45.184 237.264 45.136L234.6 44.848V41.968C235.08 42.016 235.584 42.064 236.112 42.112C236.688 42.112 237.264 42.112 237.84 42.112C239.04 42.16 240.312 42.208 241.656 42.256C243 42.256 244.392 42.256 245.832 42.256C247.272 42.256 248.64 42.256 249.936 42.256C251.28 42.208 252.552 42.16 253.752 42.112C254.328 42.112 254.88 42.112 255.408 42.112C255.984 42.064 256.512 42.04 256.992 42.04V44.848L254.328 45.064C253.416 45.16 252.72 45.304 252.24 45.496C251.808 45.64 251.52 45.856 251.376 46.144C251.184 46.576 251.04 47.272 250.944 48.232C250.896 49.192 250.872 50.44 250.872 51.976V51.904ZM311.064 46.36V63.64C311.88 63.736 312.696 63.808 313.512 63.856C314.328 63.856 315.12 63.856 315.888 63.856L320.64 63.784C321.888 63.832 322.872 63.784 323.592 63.64C324.312 63.448 324.696 63.016 324.744 62.344L325.176 58.168H328.056C328.056 58.648 328.032 59.104 327.984 59.536C327.984 59.968 327.984 60.4 327.984 60.832C327.984 61.024 327.96 61.24 327.912 61.48C327.912 61.672 327.912 61.864 327.912 62.056C327.912 62.728 327.888 63.376 327.84 64C327.84 64.624 327.84 65.272 327.84 65.944C327.84 66.808 327.84 67.672 327.84 68.536C327.888 69.4 327.936 70.264 327.984 71.128C327.984 71.56 327.984 71.992 327.984 72.424C328.032 72.856 328.056 73.288 328.056 73.72L325.176 73.648L324.744 70.048C324.648 69.088 324.24 68.416 323.52 68.032C322.848 67.648 321.888 67.456 320.64 67.456L315.888 67.384C315.12 67.432 314.328 67.48 313.512 67.528C312.696 67.528 311.88 67.576 311.064 67.672V86.824C312.6 86.92 314.136 86.992 315.672 87.04C317.208 87.088 318.744 87.112 320.28 87.112C320.76 87.112 321.264 87.112 321.792 87.112C322.32 87.064 322.848 87.016 323.376 86.968C324.576 86.872 325.704 86.752 326.76 86.608C327.816 86.416 328.512 86.224 328.848 86.032C328.896 86.032 328.944 86.032 328.992 86.032C329.04 85.984 329.064 85.936 329.064 85.888L330.72 79.048H333.528L332.736 90.424L332.376 91C331.176 91.096 329.76 91.168 328.128 91.216C326.544 91.264 324.912 91.288 323.232 91.288C322.848 91.288 322.44 91.288 322.008 91.288C321.624 91.288 321.24 91.288 320.856 91.288C319.704 91.288 318.6 91.288 317.544 91.288C316.488 91.288 315.528 91.264 314.664 91.216C314.184 91.216 313.68 91.192 313.152 91.144C312.672 91.144 312.192 91.144 311.712 91.144C310.752 91.096 309.768 91.048 308.76 91C307.8 91 306.816 91 305.808 91C304.8 91 303.792 91 302.784 91C301.824 91.048 300.864 91.096 299.904 91.144C299.424 91.144 298.944 91.144 298.464 91.144C298.032 91.192 297.6 91.216 297.168 91.216V89.56L299.472 88.264C300.048 87.976 300.432 87.52 300.624 86.896C300.816 86.224 300.912 85.336 300.912 84.232V51.904C300.912 50.416 300.888 49.192 300.84 48.232C300.792 47.272 300.648 46.576 300.408 46.144C300.216 45.76 299.904 45.472 299.472 45.28C299.088 45.088 298.416 44.968 297.456 44.92L294.792 44.632V41.968C295.608 42.016 296.376 42.064 297.096 42.112C297.816 42.112 298.512 42.112 299.184 42.112C300.528 42.16 301.776 42.208 302.928 42.256C304.08 42.256 305.112 42.256 306.024 42.256C308.28 42.256 310.344 42.256 312.216 42.256C314.088 42.208 315.816 42.16 317.4 42.112C318.168 42.112 318.912 42.112 319.632 42.112C320.4 42.064 321.12 42.04 321.792 42.04C322.176 42.04 322.536 42.04 322.872 42.04C323.208 42.04 323.544 42.016 323.88 41.968C324.216 41.968 324.528 41.968 324.816 41.968C325.152 41.968 325.488 41.968 325.824 41.968C326.112 41.968 326.4 41.968 326.688 41.968C326.976 41.968 327.24 41.992 327.48 42.04C327.96 42.04 328.416 42.04 328.848 42.04C329.28 42.04 329.712 42.064 330.144 42.112C330.528 42.112 330.888 42.136 331.224 42.184C331.608 42.184 331.968 42.208 332.304 42.256L332.736 42.688L331.728 52.912H329.136L328.56 47.512C328.512 47.128 327.888 46.84 326.688 46.648C325.536 46.456 324.264 46.336 322.872 46.288C322.44 46.24 321.984 46.216 321.504 46.216C321.072 46.216 320.664 46.216 320.28 46.216C318.744 46.216 317.208 46.24 315.672 46.288C314.136 46.288 312.6 46.336 311.064 46.432V46.36Z" stroke="black" stroke-width="3" mask="url(#path-1-outside-1_516_58)"/>
<path d="M409.413 82.7972C409.686 82.7972 409.958 82.7972 410.23 82.7972C410.775 82.7972 411.388 82.7972 412.001 82.7972C411.116 84.908 410.775 85.5889 409.822 85.5889C409.413 85.5889 408.801 85.3846 407.915 85.1803C399.949 82.7972 391.982 80.6864 384.152 78.0309C377.275 75.7839 371.419 71.7666 367.334 65.5705C365.972 63.4597 365.155 60.9404 363.929 58.6934C359.504 50.5226 355.01 42.3519 350.516 34.2492C349.971 33.364 348.745 32.8193 347.928 32.1384C347.247 31.5937 346.09 30.9128 346.09 30.4361C346.226 29.551 347.043 28.7339 347.588 27.7806L350.516 27.7125C359.435 32.2065 364.61 40.3773 370.738 47.5948C375.913 53.7909 380.816 60.3956 387.897 64.5491C391.029 66.3876 394.638 67.6132 398.11 68.8388C403.217 70.6091 408.46 72.039 414.18 73.8093C411.048 73.6051 408.324 73.6732 405.668 73.1965C396.953 71.7667 389.463 67.6813 382.722 61.9617C375.845 56.1741 370.058 49.3651 364.27 42.5561C361.274 39.0155 358.278 35.4748 355.01 32.2065C353.92 31.117 352.15 30.7085 350.243 29.8233C350.379 30.6404 350.311 30.8447 350.448 31.0489C353.648 36.5642 356.916 42.0795 359.98 47.6629C363.248 53.859 366.244 60.3276 370.875 65.7067C374.756 70.2006 378.909 74.2179 384.969 75.9201C391.642 77.8266 398.179 80.346 404.851 82.3887C406.281 82.8653 407.915 82.7291 409.413 82.7972ZM421.533 80.6864C422.282 81.2992 422.895 81.8439 423.917 82.5929C423.372 82.7745 422.918 82.8653 422.555 82.8653C421.465 82.8653 421.329 82.0482 421.533 80.6864ZM441.007 64.6853L441.211 65.1619C440.667 65.6386 440.122 66.1833 439.509 66.5237C439.464 66.5691 439.373 66.5918 439.237 66.5918C438.964 66.5918 438.692 66.5237 438.42 66.5237C438.556 66.1152 438.488 65.4343 438.692 65.2981C439.441 64.9577 440.258 64.8896 441.007 64.6853ZM458.847 74.4902L459.119 75.103C458.506 75.7839 457.893 76.4649 457.008 77.4181C456.668 76.4649 456.463 75.7839 456.259 75.1711C457.144 74.9668 458.029 74.7626 458.847 74.4902ZM465.315 78.4395C465.769 78.4395 466.246 78.4621 466.745 78.5075C464.839 79.4608 462.796 80.414 460.753 81.4354C460.617 79.5289 462.183 78.4395 465.315 78.4395ZM411.933 86.4741C413.703 87.223 415.337 87.9039 417.108 88.6529C416.427 89.6743 415.541 90.0147 414.724 90.0147C414.361 90.0147 413.975 89.9466 413.567 89.8104C412.341 89.3338 411.728 88.1763 411.933 86.4741Z" fill="#E6E6E7"/>
<path d="M510.186 89.6062C515.293 90.4232 520.195 91.1722 525.234 91.9893C522.511 97.7769 519.855 103.428 517.131 109.08C508.961 126.375 500.767 143.669 492.551 160.964C489.895 166.616 487.036 172.267 484.312 177.919C483.904 178.872 483.359 179.212 482.338 179.28C477.912 179.417 473.554 179.689 469.196 179.893C468.243 179.893 467.358 179.757 466.609 179.621C466.541 179.349 466.405 179.212 466.405 179.076C466.064 175.263 464.907 174.106 461.162 173.765C459.119 173.561 457.008 173.901 455.102 172.744L454.08 173.016C451.22 175.74 447.544 175.876 444.003 176.693C441.279 177.306 438.692 178.259 436.105 179.076C435.151 179.349 434.198 179.825 433.177 179.893C432.178 179.984 431.179 180.029 430.181 180.029C422.01 180.029 414.792 176.897 408.46 171.722C406.894 170.429 406.213 167.637 405.805 165.39C405.328 162.939 405.737 160.351 405.532 157.832C405.396 155.585 406.349 153.883 407.711 152.181C408.869 152.657 410.162 153.066 411.456 153.543C412.001 153.747 412.546 154.087 413.022 154.087C413.499 154.087 413.975 153.815 414.316 152.998C414.384 152.794 415.133 152.862 415.61 152.793C417.176 152.725 418.878 152.862 419.831 151.159C421.601 152.113 423.372 152.998 425.278 152.998C425.959 152.998 426.708 152.93 427.457 152.589C428.41 152.249 429.159 151.5 430.045 150.955C430.725 150.547 431.679 149.798 432.155 149.798C433.449 150.478 434.743 151.432 435.015 152.521C435.492 154.019 435.424 155.858 434.947 157.287C434.675 158.105 433.177 158.717 432.087 158.99C431.77 159.035 431.474 159.058 431.202 159.058C430.317 159.058 429.364 158.854 428.479 158.785C428.206 158.785 427.934 158.785 427.661 158.785C427.162 158.785 426.663 158.785 426.163 158.785L426.027 159.466C426.981 159.739 427.934 160.147 428.955 160.283C431.815 160.488 431.883 160.624 432.292 163.62C432.36 164.301 432.904 165.186 433.517 165.594C434.062 165.662 434.811 165.186 435.287 164.845C436.445 163.96 437.671 163.552 438.896 163.552C439.532 163.552 440.145 163.642 440.735 163.824C442.641 164.301 444.48 164.777 446.318 165.526C446.727 165.662 447.112 165.731 447.476 165.731C448.225 165.731 448.837 165.39 449.178 164.777C449.791 163.688 450.54 161.918 450.063 161.1C447.203 156.334 444.343 151.5 439.85 147.959C437.466 146.121 434.879 145.099 432.019 145.099C431.52 145.099 431.021 145.122 430.521 145.167C428.547 145.372 426.572 145.712 424.529 145.78C422.895 145.826 421.216 145.826 419.491 145.78C417.244 145.78 414.929 145.78 412.545 145.78C415.405 142.512 415.678 138.767 415.133 134.886C414.656 131.754 413.635 128.69 412.818 125.626C412.682 125.013 412.273 124.332 412.273 123.719C412.273 121.404 410.571 120.315 409.209 118.885C408.596 118.204 408.052 117.523 407.507 116.842L406.758 116.297C404.715 115.548 402.672 114.799 400.63 114.187C399.2 113.71 397.77 113.369 396.34 112.961C395.864 112.825 395.319 112.689 394.978 112.416C392.754 110.283 390.552 108.127 388.374 105.948C385.31 103.02 384.016 99.1387 383.063 95.1895C382.926 94.6448 383.471 93.8277 383.948 93.3511C387.352 89.3338 391.914 87.6316 397.021 87.5635C399.064 87.5635 401.106 88.8572 403.217 89.3338C404.715 89.6743 406.349 89.4019 407.779 89.8785C409.277 90.3552 410.571 91.2403 411.865 92.0574C412.75 92.6021 413.363 93.4873 414.18 94.1001C414.861 94.5767 415.337 94.781 415.814 94.781C416.631 94.781 417.312 94.1682 418.061 93.2149C419.355 91.5808 421.125 90.219 422.895 89.0615C423.031 88.9707 423.213 88.9253 423.44 88.9253C424.053 88.9253 424.87 89.2657 425.551 89.3338L426.027 88.9253C425.551 88.0401 425.074 87.0869 424.529 86.2698C423.78 85.0442 423.712 84.2271 425.074 83.2738C426.368 82.3206 427.321 80.8226 428.342 79.3927C429.432 77.8266 430.726 76.4648 432.7 76.4648C432.972 76.4648 433.267 76.5102 433.585 76.601C434.47 76.7372 435.424 77.2819 436.241 77.8266C436.717 78.1671 437.194 78.5075 437.671 78.5075C438.147 78.5075 438.624 78.1671 439.169 77.35C438.147 76.601 437.126 75.784 436.105 75.035C435.083 74.286 433.381 74.0136 433.721 72.3114C433.994 71.2219 434.675 71.0177 435.492 71.0177C435.719 71.0177 435.946 71.0177 436.173 71.0177C436.354 71.0631 436.559 71.0857 436.786 71.0857H437.807C437.534 71.4943 437.33 71.7666 436.854 72.3795C439.305 72.3795 439.85 70.4729 441.347 69.792C441.416 70.8134 441.211 72.1752 442.641 72.1752C442.823 72.1752 443.05 72.1525 443.322 72.1071C442.914 73.8774 442.641 75.4435 442.301 77.0096L442.777 77.2819C443.322 76.8734 443.799 76.601 444.412 76.1925C445.161 76.8053 445.91 77.4862 446.795 78.0309C447.158 78.2579 447.453 78.3713 447.68 78.3713C448.225 78.3713 448.497 77.8947 448.497 77.0096V74.6945H454.353C454.625 75.6478 454.897 76.601 455.034 77.4862C455.034 77.9628 454.829 78.5756 454.557 78.9842C454.08 79.0523 453.467 78.848 453.263 78.6437C452.855 78.3033 452.582 78.1671 452.31 78.1671C451.561 78.1671 451.221 79.1204 450.472 79.4608C451.016 80.0055 451.425 80.346 451.901 80.8226C450.199 81.3673 448.701 81.912 447.135 82.3887C448.088 83.2738 449.11 83.6823 450.063 84.0228C449.11 84.7037 448.225 84.8399 447.203 84.9761C447.748 87.6997 451.152 86.7464 451.697 89.4019C451.152 89.1295 450.608 88.8572 449.791 88.3806C449.654 88.3806 449.11 88.6529 448.565 88.8572L448.429 89.4019C449.314 89.8785 450.199 90.3552 451.084 90.7637C451.561 91.0361 452.038 91.3765 452.582 91.6489C454.285 92.3298 454.285 93.5554 453.876 95.1215C453.74 95.7343 454.285 96.6194 454.489 97.3003C455.442 96.9599 457.144 96.7556 457.281 96.1428C458.098 93.0788 460.072 92.534 462.319 92.534C463 92.534 463.681 92.6021 464.362 92.6021C465.179 92.6702 465.928 92.8064 466.677 93.0107C468.72 93.3511 470.694 93.7597 472.601 94.1001C474.848 92.466 474.439 90.4233 473.894 88.3125C473.486 86.6102 472.805 84.908 473.963 83.1376C475.801 83.5462 477.571 83.9547 479.342 84.2952C480.227 84.3633 480.771 84.2271 480.908 83.9547C481.248 83.1376 481.452 82.1163 481.384 81.0949C481.384 80.9588 480.431 80.6183 479.818 80.6183C479.41 80.6183 479.274 80.6183 479.137 80.6183C477.98 80.6183 477.639 80.0055 477.912 77.8947C473.758 79.1203 471.103 82.1844 468.243 84.5675C468.039 83.7505 468.039 82.7291 467.562 82.3205C467.085 81.8439 466.064 81.9801 465.111 81.844C465.86 81.095 466.473 80.0055 467.426 79.3246C470.422 77.2138 472.124 73.6732 475.869 72.3795C476.754 72.039 477.231 70.4048 477.503 69.1792C479.273 68.0217 481.044 66.9323 482.882 65.7067C482.406 64.9577 481.997 64.2768 481.316 63.3916C482.338 62.7107 483.359 62.0979 484.38 61.417C485.333 64.8215 488.874 64.1406 490.713 65.9109C494.526 63.1873 494.389 48.8885 492.755 41.8752C492.347 42.8285 491.87 43.3051 491.938 43.7817C492.006 45.0074 492.347 46.233 492.415 47.5267C492.483 48.2757 492.619 49.3651 492.211 49.7056C490.644 51.1354 490.781 52.8377 490.849 54.608C490.849 54.9485 490.781 55.357 490.372 55.7655C490.168 54.8804 489.895 54.0633 489.827 53.1781C489.623 51.2716 489.623 49.297 489.419 47.3224C489.419 46.8458 489.419 46.0968 488.738 46.0968C488.602 46.0968 488.398 46.1422 488.125 46.233L487.512 45.8244C486.9 45.3478 486.627 45.0754 486.287 45.0754C485.946 45.0754 485.47 45.3478 484.653 45.8244C485.061 43.3051 485.402 40.9901 485.878 38.675C486.287 36.3599 486.9 33.9768 487.444 31.3894C488.057 31.6617 488.67 31.6618 489.146 32.0022C489.691 32.4788 490.236 32.6831 490.781 32.6831C491.462 32.6831 492.074 32.4107 492.551 31.7979C493.232 30.9128 493.504 29.6872 493.64 28.5296C493.709 28.2573 492.551 27.8487 491.734 27.3721C491.598 28.3934 491.462 28.9382 491.325 30.0276C490.713 30.0276 490.032 29.9595 489.351 29.9595C488.851 29.9595 488.352 30.0049 487.853 30.0957C487.308 30.1638 486.491 30.7766 486.355 31.3213C485.47 34.2492 484.448 37.177 483.904 40.173C482.61 46.3011 482.133 52.5653 479.546 58.421C477.367 63.3916 473.418 65.9109 468.311 66.8642C466.405 67.2046 464.498 67.2046 462.523 67.2046C468.924 66.5918 473.963 63.5278 477.639 58.421C478.865 56.6507 479.137 54.1995 479.75 52.0206C480.976 47.3905 481.793 42.7604 483.018 38.1303C484.516 32.4107 486.355 26.8274 489.146 21.5164C492.551 15.0478 497.181 9.53257 503.241 5.37909C503.718 5.10673 504.331 4.97055 504.943 4.97055C505.488 4.97055 506.033 5.10673 506.373 5.24291C507.054 5.51526 507.463 6.80897 507.531 7.62605C507.599 8.23886 507.054 9.12403 506.509 9.46448C500.654 13.9584 497.385 19.8822 496.228 27.0997C495.07 34.9982 495.615 42.8966 495.819 50.7269C495.887 55.357 495.206 59.919 494.594 64.481C494.389 65.7747 493.164 66.8642 492.415 68.0217C491.87 68.9069 491.393 69.792 490.849 70.7453C493.709 72.9242 496.909 73.9455 500.177 74.286C503.718 74.6264 507.258 74.5583 510.799 74.7626C511.344 74.7626 512.025 75.035 512.297 75.4435C513.523 77.2819 514.68 79.1885 515.974 81.1631C514.544 82.3887 513.455 83.3419 512.297 84.2952C508.688 87.1549 508.416 88.1082 510.05 92.3298C510.186 92.6702 510.254 93.0787 510.322 93.3511C507.803 94.1001 507.667 94.5086 508.075 99.4111C510.05 99.2749 510.322 98.594 509.369 95.8704C510.459 94.9853 512.161 94.2363 512.297 93.283C512.433 92.2617 511.071 91.0361 510.186 89.6062ZM350.516 27.7125C359.435 32.2065 364.678 40.3773 370.738 47.5948C375.913 53.7909 380.816 60.3956 387.897 64.5491C391.029 66.3876 394.638 67.6132 398.11 68.8388C403.217 70.6091 408.46 72.039 414.18 73.8093C411.048 73.6051 408.324 73.6732 405.668 73.1965C396.953 71.7667 389.463 67.6813 382.722 61.9617C375.845 56.1741 370.058 49.3651 364.27 42.5561C361.274 39.0155 358.278 35.4748 355.01 32.2065C353.92 31.117 352.15 30.7085 350.243 29.8233C350.379 30.6404 350.311 30.8447 350.448 31.0489C353.648 36.5642 356.916 42.0795 359.98 47.6629C363.248 53.859 366.244 60.3276 370.875 65.7067C374.756 70.2006 378.909 74.2179 384.969 75.9201C391.642 77.8266 398.179 80.346 404.851 82.3887C406.281 82.8653 407.915 82.7291 409.413 82.7972C409.686 82.7972 409.958 82.7972 410.23 82.7972C410.775 82.7972 411.365 82.7972 412.001 82.7972C411.116 84.908 410.775 85.5889 409.822 85.5889C409.413 85.5889 408.801 85.3846 407.915 85.1803C399.949 82.7972 391.982 80.6864 384.152 78.0309C377.275 75.7839 371.419 71.7666 367.334 65.5705C365.972 63.4597 365.155 60.9404 363.929 58.6934C359.504 50.5226 355.01 42.3519 350.516 34.2492C349.971 33.364 348.745 32.8193 347.928 32.1384C347.247 31.5937 346.09 30.9128 346.09 30.4361C346.226 29.551 347.043 28.7339 347.588 27.7806L350.516 27.7125Z" fill="#E72A15"/>
<path d="M411.932 86.474C413.703 87.223 415.337 87.9039 417.107 88.6529C416.426 89.6743 415.541 90.0147 414.724 90.0147C414.361 90.0147 413.975 89.9466 413.566 89.8104C412.341 89.3338 411.728 88.1763 411.932 86.474ZM465.315 78.4395C465.769 78.4395 466.245 78.4621 466.745 78.5075C464.838 79.4608 462.795 80.414 460.753 81.4354C460.616 79.5289 462.182 78.4395 465.315 78.4395ZM458.846 74.4902L459.118 75.103C458.506 75.7839 457.893 76.4648 457.008 77.4181C456.667 76.4648 456.463 75.7839 456.259 75.1711C457.144 74.9668 458.029 74.7626 458.846 74.4902ZM441.007 64.6853L441.211 65.1619C440.666 65.6385 440.121 66.1833 439.509 66.5237C439.463 66.5691 439.372 66.5918 439.236 66.5918C438.964 66.5918 438.691 66.5237 438.419 66.5237C438.555 66.1152 438.487 65.4343 438.692 65.2981C439.44 64.9577 440.258 64.8896 441.007 64.6853ZM421.533 80.6864C422.282 81.2992 422.895 81.8439 423.916 82.5929C423.371 82.7745 422.917 82.8653 422.554 82.8653C421.465 82.8653 421.329 82.0482 421.533 80.6864Z" fill="#2C2E35"/>
<path d="M484.108 120.315C487.581 120.655 489.419 122.902 489.896 126.17C490.645 131.618 487.308 134.545 483.563 137.337C480.976 139.244 478.434 141.218 475.937 143.261C474.167 144.827 473.35 146.87 473.01 149.185C472.941 149.729 472.669 150.478 472.261 150.615C467.971 151.772 466.201 155.177 464.634 158.854C464.362 159.534 464.158 160.351 463.545 160.351C463.409 160.351 463.25 160.306 463.068 160.215C462.524 160.011 461.979 158.853 462.047 158.241C462.592 154.632 463.817 151.636 467.494 149.866C469.265 149.049 470.831 147.21 471.988 145.576C473.214 143.942 473.827 141.899 474.848 140.129C476.278 137.541 478.389 135.839 481.18 134.886C481.793 134.682 482.542 134.273 482.883 133.66C484.925 129.915 486.287 126.034 484.38 121.676C484.244 121.336 484.176 120.928 484.108 120.315ZM504.535 7.2175C500.314 14.0946 496.228 20.7674 491.87 27.9849C491.462 27.2359 491.19 26.7593 490.985 26.4869C490.236 27.0997 489.623 27.5764 489.011 28.053L488.398 27.5764C489.828 23.0144 491.938 18.7928 494.594 14.9117C496.909 11.5072 499.565 8.03458 504.535 7.2175ZM451.153 126.17C451.766 126.17 452.31 126.851 452.855 127.056C454.012 127.6 453.808 128.485 453.263 129.371C452.174 131.141 450.88 132.843 449.927 134.682C448.928 136.543 448.111 138.495 447.476 140.537C447.135 141.491 446.727 142.103 445.978 142.103C445.842 142.103 445.66 142.081 445.433 142.035C443.118 141.967 442.914 141.967 443.663 139.72C445.093 135.022 447.135 130.596 450.199 126.715C450.54 126.307 450.88 126.17 451.153 126.17ZM465.179 104.722C464.634 106.697 464.158 108.671 463.477 111.259C464.839 110.033 465.724 109.148 467.086 107.854C467.086 109.965 467.358 111.599 467.018 113.165C466.473 115.072 464.498 115.276 462.796 115.685H462.251C461.434 115.412 460.072 115.344 459.868 114.799C459.323 113.506 460.345 112.757 461.502 112.348C462.796 111.872 463.068 111.191 462.456 109.829C461.707 108.331 461.366 106.629 460.821 104.722H465.179ZM446.114 105.471C445.365 107.582 444.957 109.829 443.935 111.735C442.369 114.867 441.756 118.136 442.437 121.745C441.212 121.881 440.122 122.017 438.897 122.085C439.85 115.957 439.577 109.42 446.114 105.471ZM503.309 103.701C503.65 103.701 504.058 103.837 504.467 103.837C504.263 104.382 504.195 105.199 503.854 105.471C503.105 106.016 502.016 106.084 501.267 106.697C499.496 107.922 497.862 109.352 496.296 110.85C495.547 111.531 493.981 112.076 492.824 112.076C492.211 112.076 491.666 111.94 491.394 111.599C490.849 110.986 490.781 110.033 490.509 109.284C491.394 109.08 492.279 108.739 493.232 108.739C493.709 108.739 494.254 109.284 495.003 109.693C495.071 108.263 495.207 107.037 495.207 106.424C497.93 105.403 500.382 104.586 502.833 103.769C502.969 103.723 503.128 103.701 503.309 103.701ZM417.584 107.922C418.333 108.467 419.695 108.944 419.763 109.625C420.172 112.416 420.172 115.208 420.308 118.136H416.563C416.563 117.659 416.427 117.251 416.631 116.978C417.721 114.595 417.925 112.28 416.972 109.761C416.835 109.284 417.38 108.535 417.584 107.922ZM409.277 154.836C410.322 158.649 411.366 162.462 412.41 166.275C411.593 166.411 410.912 166.48 410.367 166.48C408.665 166.48 408.324 165.662 408.324 163.347C408.324 161.169 408.392 158.922 408.46 156.811C408.46 156.13 408.665 155.517 408.801 154.904L409.277 154.836ZM502.969 83.7505L503.65 84.5675C503.718 85.9974 503.65 87.4954 503.65 88.9253L503.309 89.2657C503.037 88.8572 502.561 88.5167 502.492 88.1763C502.356 87.0188 502.424 85.7251 502.492 84.5675L502.969 83.7505Z" fill="#E6E6E7"/>
<path fill-rule="evenodd" clip-rule="evenodd" d="M516.927 85.7931L531.362 88.1082L495.887 163.143L487.58 180.098C487.036 181.391 486.082 182.481 484.857 183.23C483.836 183.842 482.61 184.115 481.248 184.183L467.902 184.864C466.768 184.818 465.656 184.705 464.566 184.523L461.842 184.047L460.345 180.234C460.345 179.734 460.299 179.258 460.208 178.804L456.259 178.531C455.624 178.486 454.965 178.373 454.285 178.191C452.696 179.28 450.948 180.029 449.042 180.438C447.407 180.778 445.705 181.187 443.935 181.459C441.007 182.276 437.943 183.23 435.015 184.251C434.198 184.523 433.313 184.728 432.428 184.864C431.338 184.932 430.181 185 429.023 185C424.734 185 420.512 184.251 416.495 182.753C412.001 181.051 407.779 178.6 404.102 175.535C402.536 174.174 401.379 172.335 400.698 170.088C399.677 166.684 399.336 164.164 399.404 160.76C399.472 159.875 399.472 158.99 399.404 158.105C399.2 155.449 399.881 153.134 401.515 150.615H400.494L407.643 142.512C408.324 141.695 408.869 140.674 409.073 139.652C409.481 136.997 408.801 133.933 408.052 131.345C408.052 131.209 407.983 130.869 407.847 130.46C407.507 129.166 406.894 126.919 406.758 126.511C406.44 125.694 406.259 124.877 406.213 124.06C405.056 122.97 403.966 121.813 403.013 120.587C401.311 120.042 399.677 119.429 398.042 118.885L392.868 117.387C391.982 117.114 391.233 116.638 390.552 116.093C388.169 113.914 385.854 111.667 383.675 109.488C381.701 107.514 380.135 105.199 379.113 102.679C378.228 100.569 377.547 98.4578 377.071 96.279C376.526 93.6915 377.82 91.5127 378.977 90.0828C381.088 87.6316 383.743 85.657 386.671 84.4314C384.969 83.8866 383.199 83.3419 381.428 82.7291C373.121 80.0055 366.381 74.9669 362.023 68.226C361.546 67.477 361.002 66.5918 360.593 65.7067C360.253 65.0258 359.98 64.3449 359.64 63.5959C359.367 62.9831 358.823 61.8255 358.414 61.0765C355.486 55.6294 352.49 50.1141 349.426 44.6669C352.558 50.1822 355.554 55.6294 358.482 61.0084C358.891 61.7574 359.435 62.9831 359.708 63.5959C359.98 64.3449 360.321 65.0258 360.661 65.6386C361.07 66.5237 361.546 67.477 362.091 68.226C366.449 74.9669 373.121 79.9374 381.428 82.7291C383.199 83.2738 385.037 83.8866 386.739 84.4314C383.744 85.7251 381.088 87.6315 379.045 90.1509C377.82 91.5127 376.526 93.6915 377.139 96.279C377.615 98.4578 378.296 100.569 379.113 102.611C380.203 105.199 381.769 107.446 383.744 109.42C385.922 111.667 388.237 113.846 390.552 116.025C391.233 116.615 392.005 117.069 392.868 117.387L398.042 118.817C399.677 119.361 401.311 119.974 403.013 120.587C404.012 121.767 405.101 122.925 406.281 124.06C406.327 124.877 406.485 125.694 406.758 126.511C406.962 126.919 407.507 129.166 407.915 130.46C408.052 130.869 408.052 131.141 408.12 131.345C408.869 133.933 409.55 136.997 409.073 139.652C408.869 140.674 408.392 141.695 407.711 142.512L400.562 150.615H401.515C399.949 153.134 399.268 155.449 399.472 158.105C399.472 158.99 399.54 159.875 399.472 160.76C399.336 164.164 399.677 166.684 400.766 170.02C401.379 172.335 402.536 174.106 404.17 175.467C407.847 178.6 412.001 180.983 416.495 182.753C420.512 184.183 424.734 184.932 429.023 184.932C430.158 184.932 431.293 184.886 432.428 184.796C433.313 184.66 434.198 184.523 435.015 184.183C437.943 183.162 440.939 182.276 443.935 181.459C445.705 181.119 447.407 180.778 449.042 180.438C450.948 179.961 452.718 179.212 454.285 178.123C454.965 178.304 455.646 178.418 456.327 178.463L459.596 178.6L460.276 178.736C460.345 179.212 460.413 179.757 460.413 180.234L461.911 183.979L464.566 184.455C465.656 184.66 466.813 184.796 467.902 184.796L481.248 184.115C482.61 184.115 483.836 183.774 484.857 183.162C486.151 182.344 487.104 181.187 487.717 179.757L495.819 163.075L531.294 88.1763L516.859 85.8612C518.221 84.6356 519.719 83.41 521.081 82.1163C519.242 78.9161 517.131 75.6478 515.021 72.5156C513.795 70.9496 511.957 69.9963 509.982 69.792L505.488 69.6559C503.173 69.5878 498.883 69.5197 496.773 68.9069C497.522 67.7493 498.066 66.4556 498.271 65.1619C498.588 62.9831 498.861 60.7815 499.088 58.5572C499.428 55.9017 499.564 53.3143 499.496 50.7269L499.224 39.3559C499.156 35.5429 499.428 31.6617 499.973 27.7806C500.313 25.057 501.198 22.4696 502.492 20.0865C503.922 17.431 505.897 15.184 508.28 13.4137C510.186 11.9838 511.344 9.60066 511.276 7.42178C511.208 6.12808 510.867 4.90247 510.118 3.40449C509.029 1.29371 506.85 0.136163 503.922 0.0680732C502.084 0.0680732 500.586 0.544718 499.292 1.3618C492.687 5.92381 487.24 12.12 483.631 19.3375C480.159 25.8741 477.639 33.4321 475.46 43.7136C474.984 46.0287 474.439 48.4118 473.826 50.795L473.009 54.0633C472.941 54.608 472.669 55.1527 472.328 55.6974C469.741 59.5105 465.587 61.9617 460.957 62.3702C459.596 62.4383 458.438 63.1192 457.621 64.0725C456.736 65.0938 456.395 66.3876 456.463 67.6813C456.6 68.6345 456.736 69.3835 456.804 69.724C456.804 69.7693 456.827 69.792 456.872 69.792H456.804C456.849 69.9736 456.895 70.1325 456.94 70.2687L456.804 69.792H446.454C446.046 69.1111 445.569 68.5664 444.956 68.1579V67.1365L444.616 61.8255L437.807 65.5024C437.466 65.7066 437.058 65.9109 436.717 66.1833C436.536 66.1379 436.332 66.1152 436.105 66.1152C435.151 66.1152 434.811 66.1152 434.47 66.1152C432.428 66.1152 430.794 66.6599 429.568 67.9536C428.615 68.8388 428.002 69.9963 427.73 71.29C427.661 71.6305 427.593 72.1071 427.593 72.4475C427.253 72.6518 426.912 72.8561 426.64 72.9923C424.938 72.4476 422.963 71.9028 420.921 71.2219C414.929 69.3154 408.188 67.2046 406.758 66.7961C404.375 66.1152 398.247 64.2087 393.753 62.4383C392.595 61.9617 390.825 61.2127 389.191 60.3275C387.874 59.5105 386.603 58.6026 385.378 57.604C384.016 56.4691 382.699 55.2435 381.428 53.9271C380.135 52.5653 378.841 51.1354 377.615 49.6375C377.003 48.8885 376.322 48.0714 375.505 47.05C374.756 46.233 374.075 45.3478 373.326 44.4626C372.1 43.0327 370.943 41.5348 369.785 40.1049C368.968 39.0608 368.151 38.0622 367.334 37.1089C365.291 34.5215 362.431 31.2532 358.959 28.2573C356.712 26.3508 354.192 24.6485 351.605 23.3548L350.448 22.742L343.639 23.0143L342.277 25.1932C342.004 25.5337 341.8 25.8741 341.596 26.1465C341.324 26.555 341.074 26.9635 340.847 27.3721C340.438 28.1211 340.166 29.0062 340.098 29.8233C339.962 31.1851 340.234 32.3427 340.915 33.364C341.392 34.0449 342.004 34.7258 342.822 35.2705L343.639 35.8833C344.251 36.428 344.524 36.5642 345 36.9047C345 36.9501 345.023 36.9728 345.068 36.9728C344.456 36.5642 344.183 36.428 343.571 35.9514L342.753 35.3386C341.982 34.7485 341.346 34.113 340.847 33.4321C340.234 32.4107 339.894 31.1851 340.03 30.0276C340.098 28.9381 340.37 28.1211 340.847 27.304C341.029 26.9408 341.255 26.555 341.528 26.1465C341.732 25.8741 342.004 25.5337 342.209 25.1932L343.639 22.9463L350.448 22.6739L351.605 23.2867C354.261 24.6485 356.712 26.2827 358.959 28.2573C362.499 31.1851 365.291 34.5215 367.402 37.0408C368.151 37.9941 368.968 39.0154 369.853 40.0368C370.943 41.5348 372.168 42.9647 373.326 44.4626C374.052 45.3251 374.778 46.1876 375.505 47.05C376.322 48.0714 377.003 48.8885 377.615 49.6375C378.841 51.0673 380.135 52.5653 381.497 53.859C382.722 55.2208 384.039 56.4691 385.446 57.604C386.603 58.5572 387.897 59.4424 389.259 60.2595C390.825 61.2127 392.595 61.9617 393.753 62.4383C398.247 64.1406 404.375 66.0471 406.758 66.728C408.188 67.2046 414.997 69.3154 420.989 71.1538C422.963 71.8347 424.938 72.4475 426.64 72.9242C426.958 72.7426 427.253 72.5837 427.525 72.4475C427.593 72.039 427.593 71.6305 427.73 71.29C427.934 69.9963 428.615 68.7707 429.5 67.8855C430.794 66.6599 432.428 66.0471 434.47 66.0471C434.834 66.0471 435.197 66.0698 435.56 66.1152C436.036 66.1152 436.377 66.1152 436.717 66.1152C437.08 65.8882 437.444 65.6612 437.807 65.4343L444.684 61.7574L445.024 68.0898C445.637 68.4983 446.114 69.1111 446.454 69.724H456.736C456.668 69.3835 456.531 68.6345 456.463 67.6813C456.327 66.3876 456.736 65.0938 457.553 64.0725C458.438 63.0511 459.595 62.4383 460.889 62.3022C465.519 61.8936 469.673 59.4424 472.328 55.6294C472.601 55.1527 472.873 54.608 472.941 53.9952L473.758 50.7269C474.371 48.4118 474.916 46.0287 475.392 43.7136C477.639 33.4321 480.159 25.8741 483.563 19.2694C487.24 12.0519 492.687 5.85572 499.292 1.2937C500.586 0.476624 502.084 0 503.65 0C506.85 0.0680898 509.029 1.29371 510.118 3.40449C510.867 4.90247 511.276 6.12808 511.344 7.42178C511.412 9.60066 510.254 11.9838 508.28 13.4137C505.919 15.2294 504.013 17.4537 502.56 20.0865C501.198 22.4696 500.381 25.1251 499.973 27.7806C499.428 31.6617 499.224 35.5429 499.292 39.3559L499.564 50.7269C499.61 53.3143 499.473 55.9244 499.156 58.5572C498.951 60.7361 498.611 62.9831 498.339 65.1619C498.134 66.4556 497.59 67.7493 496.841 68.8388C498.951 69.4516 503.241 69.5878 505.488 69.5878L509.982 69.792C511.957 69.9282 513.795 70.9495 515.089 72.4475C517.2 75.6477 519.242 78.9161 521.149 82.1163C519.741 83.4327 518.334 84.6583 516.927 85.7931ZM457.076 70.6091L457.008 70.4048C457.008 70.2686 456.963 70.0871 456.872 69.8601C457.008 70.2006 457.144 70.541 457.076 70.6091ZM349.426 44.6669C347.974 42.1249 346.521 39.5602 345.068 36.9728C345.114 37.0181 345.159 37.0635 345.205 37.1089C346.612 39.6056 348.019 42.1249 349.426 44.6669ZM457.008 70.4729C457.008 70.4729 457.008 70.4502 457.008 70.4048L456.94 70.2687C456.985 70.3594 457.008 70.4276 457.008 70.4729Z" fill="#0C0D0C"/>
<path d="M310.162 144.004C310.291 144.968 310.452 145.932 310.645 146.896C310.902 148.02 311.191 149.145 311.513 150.269C311.835 151.298 312.205 152.31 312.623 153.306C313.105 154.398 313.652 155.475 314.263 156.535C315.518 158.752 317.11 160.825 318.944 162.608C320.455 164.086 322.112 165.403 323.913 166.56C324.846 167.139 325.811 167.669 326.808 168.151C327.87 168.665 328.963 169.115 330.089 169.5C331.086 169.854 332.1 170.159 333.129 170.416C334.255 170.705 335.381 170.93 336.507 171.091C337.6 171.251 338.71 171.38 339.836 171.476C341.026 171.541 342.216 171.573 343.406 171.573C344.339 171.573 345.272 171.557 346.205 171.524C347.266 171.46 348.312 171.364 349.341 171.235C350.402 171.107 351.464 170.93 352.526 170.705C353.748 170.48 354.938 170.191 356.096 169.838C357.19 169.484 358.251 169.099 359.28 168.681C360.438 168.199 361.564 167.653 362.658 167.042C365.022 165.693 367.193 164.102 369.123 162.222C369.863 161.483 370.571 160.696 371.246 159.861C372.018 158.961 372.726 158.013 373.369 157.017C374.045 156.053 374.624 155.041 375.155 153.981C375.734 152.824 376.232 151.651 376.65 150.462C377.069 149.37 377.406 148.277 377.664 147.185C377.824 146.606 377.969 146.028 378.098 145.45C378.227 144.839 378.339 144.213 378.436 143.57C378.629 142.381 378.773 141.192 378.87 140.003C378.966 138.702 379.015 137.449 379.015 136.148C379.015 129.834 377.712 123.665 374.383 118.266C373.771 117.27 373.096 116.306 372.356 115.375C371.552 114.346 370.667 113.398 369.702 112.531C368.963 111.824 368.191 111.165 367.386 110.555C366.486 109.88 365.553 109.253 364.588 108.675C363.655 108.129 362.69 107.631 361.693 107.181C360.599 106.699 359.49 106.281 358.364 105.928C357.367 105.574 356.353 105.285 355.324 105.06C354.198 104.803 353.072 104.594 351.946 104.434C350.853 104.305 349.759 104.193 348.666 104.096C347.508 104.032 346.333 104 345.143 104C343.069 104 341.09 104.096 339.064 104.337C337.52 104.53 335.992 104.787 334.48 105.109C333.676 105.301 332.872 105.526 332.068 105.783C331.231 106.04 330.411 106.313 329.607 106.603C328.111 107.181 326.712 107.856 325.313 108.675C323.415 109.768 321.646 111.037 320.005 112.483C317.593 114.652 315.614 117.158 314.07 119.953C312.961 121.978 312.092 124.098 311.417 126.267C311.191 127.07 310.982 127.874 310.789 128.677C310.548 129.93 310.355 131.087 310.162 132.34V127.568C310.162 126.797 310.178 126.026 310.21 125.255C310.21 123.954 310.21 122.604 310.259 121.303C310.291 120.917 310.307 120.516 310.307 120.098C310.436 120.098 310.58 120.098 310.741 120.098C312.092 120.002 313.395 119.471 314.408 118.556L314.842 118.17C316.049 117.013 316.772 115.423 316.772 113.736V111.181C316.772 109.494 316.049 107.856 314.794 106.747L314.408 106.41C313.25 105.35 311.658 104.771 310.066 104.868C308.811 104.964 307.412 105.012 306.061 105.012C304.613 105.076 303.15 105.109 301.67 105.109C300.448 105.109 299.226 105.092 298.003 105.06C296.652 104.996 295.301 104.932 293.95 104.868C292.406 104.771 290.814 105.35 289.656 106.41L289.27 106.747C288.015 107.856 287.292 109.494 287.292 111.181V113.736C287.292 115.326 287.919 116.82 289.029 117.977L289.415 118.315C290.476 119.375 291.827 120.002 293.323 120.098C293.452 120.098 293.58 120.098 293.709 120.098C293.757 120.676 293.757 121.399 293.805 121.978C293.805 122.877 293.821 123.777 293.854 124.677C293.854 125.641 293.854 126.605 293.854 127.568V133.593C286.568 125.014 279.475 116.242 272.72 107.229C271.514 105.639 269.584 104.723 267.557 104.868C266.946 104.9 266.335 104.932 265.724 104.964C265.049 104.996 264.373 105.028 263.697 105.06C262.346 105.06 260.899 105.109 259.5 105.109C258.47 105.109 257.457 105.092 256.46 105.06C255.334 104.996 254.208 104.932 253.083 104.868C251.442 104.771 249.898 105.301 248.692 106.41L248.402 106.651L248.113 106.41C246.907 105.301 245.363 104.771 243.722 104.868C243.336 104.9 242.934 104.916 242.516 104.916C242.033 104.948 241.567 104.98 241.117 105.012C240.184 105.012 239.235 105.028 238.27 105.06C236.436 105.06 234.41 105.109 232.528 105.109C230.791 105.109 229.151 105.06 227.414 105.06C226.014 105.06 224.422 105.012 223.023 104.964C222.444 104.932 221.865 104.9 221.286 104.868C219.694 104.771 218.101 105.301 216.943 106.41L216.557 106.747C215.303 107.856 214.579 109.494 214.579 111.181V112.049C214.032 111.278 213.421 110.571 212.746 109.928C212.392 109.575 212.022 109.254 211.636 108.964C211.218 108.643 210.8 108.354 210.381 108.097C208.837 107.085 207.1 106.41 205.363 105.88C204.591 105.687 203.819 105.51 203.047 105.35C202.661 105.285 202.275 105.221 201.889 105.157C201.471 105.092 201.053 105.044 200.635 105.012C199.863 104.916 199.091 104.868 198.319 104.819C197.515 104.787 196.711 104.771 195.906 104.771C193.976 104.771 191.95 104.819 190.02 104.916C188.621 104.964 187.077 105.012 185.629 105.06C184.053 105.092 182.477 105.109 180.901 105.109C179.164 105.109 177.523 105.06 175.834 105.06C174.242 105.06 172.216 105.012 170.623 104.916C170.334 104.916 170.044 104.9 169.755 104.868C168.163 104.771 166.571 105.301 165.364 106.41L164.978 106.747C163.724 107.856 163 109.494 163 111.181V113.736C163 115.326 163.627 116.82 164.737 117.977L165.123 118.315C166.185 119.375 167.536 120.002 168.983 120.098C169.144 120.098 169.289 120.098 169.417 120.098C169.465 120.676 169.465 121.399 169.514 121.978C169.514 122.877 169.53 123.777 169.562 124.677C169.562 125.641 169.562 126.605 169.562 127.568V146.606L169.465 154.993C169.433 155.282 169.417 155.571 169.417 155.86C169.417 156.246 169.417 156.535 169.369 156.872C169.176 157.001 168.983 157.13 168.79 157.258C167.728 157.933 166.956 158.897 166.474 160.005L166.281 160.439C165.991 161.162 165.847 161.981 165.847 162.753V163.813C165.847 165.403 166.474 166.898 167.584 168.054L167.97 168.392C169.176 169.645 170.913 170.271 172.698 170.127C173.181 170.079 173.711 170.079 174.242 170.03C174.821 169.998 175.4 169.982 175.979 169.982C176.558 169.95 177.137 169.934 177.716 169.934C178.327 169.934 178.955 169.934 179.598 169.934L188.524 170.127C189.168 170.127 189.795 170.143 190.406 170.175C191.081 170.175 191.741 170.175 192.384 170.175C193.976 170.175 195.569 170.079 197.161 169.886C198.415 169.725 199.638 169.5 200.828 169.211C201.503 169.05 202.163 168.874 202.806 168.681C203.482 168.456 204.141 168.199 204.784 167.91C205.524 167.588 206.248 167.235 206.956 166.849C207.679 166.416 208.355 166.03 209.03 165.548C209.77 165.034 210.494 164.488 211.202 163.909C211.974 163.283 212.649 162.656 213.325 161.933C213.678 161.548 214.032 161.162 214.386 160.776C214.45 160.648 214.531 160.535 214.627 160.439C214.595 160.728 214.579 161.017 214.579 161.307V163.813C214.579 165.307 215.11 166.705 216.123 167.813L216.461 168.199C217.667 169.548 219.452 170.271 221.238 170.127C221.656 170.127 222.074 170.111 222.492 170.079C222.942 170.079 223.409 170.062 223.891 170.03C224.824 169.998 225.773 169.982 226.738 169.982C228.572 169.934 230.598 169.934 232.48 169.934C234.265 169.934 235.954 169.934 237.691 169.982C239.09 169.982 240.634 170.03 242.082 170.079C242.661 170.079 243.24 170.095 243.819 170.127C245.507 170.271 247.196 169.597 248.402 168.392L248.692 168.633C249.85 169.693 251.394 170.223 252.986 170.175C255.785 170.014 258.583 169.934 261.382 169.934C262.604 169.934 263.842 169.95 265.097 169.982C266.448 170.014 267.799 170.079 269.15 170.175C270.742 170.223 272.286 169.693 273.444 168.633L273.83 168.295C275.084 167.139 275.808 165.548 275.808 163.861V161.307C275.808 159.716 275.181 158.174 274.071 157.065L273.685 156.68C272.624 155.668 271.273 155.041 269.825 154.945C269.664 154.945 269.52 154.945 269.391 154.945C269.343 154.318 269.343 153.643 269.294 153.017C269.294 152.149 269.278 151.266 269.246 150.366C269.246 149.402 269.246 148.438 269.246 147.474V139.618C272.141 143.136 274.94 146.51 277.835 150.028C279.379 151.892 280.923 153.74 282.467 155.571C284.107 157.531 285.748 159.475 287.388 161.403C288.289 162.463 289.206 163.508 290.138 164.536C291.168 165.757 292.213 166.962 293.275 168.151C294.24 169.211 295.542 169.886 296.942 170.127C297.424 170.191 297.907 170.255 298.389 170.32C299.837 170.561 301.67 170.85 303.214 171.091C304.758 171.332 306.302 170.994 307.605 170.127L308.087 169.789C309.873 168.536 310.838 166.464 310.645 164.295C310.612 163.909 310.58 163.524 310.548 163.138C310.516 162.688 310.5 162.238 310.5 161.789C310.435 160.889 310.387 159.973 310.355 159.041C310.323 158.174 310.307 157.29 310.307 156.39C310.275 155.427 310.259 154.479 310.259 153.547C310.21 150.318 310.21 147.185 310.162 144.004Z" stroke="#191919" stroke-width="0.5"/>
<path fill-rule="evenodd" clip-rule="evenodd" d="M203.447 161.994C200.43 163.703 196.547 164.557 191.798 164.557C190.29 164.557 189.054 164.557 188.092 164.557L179.09 164.364C175.881 164.364 173.394 164.428 171.629 164.557L171.292 164.219V163.155L171.485 162.671C173.314 161.51 174.309 160.769 174.469 160.447C174.694 159.995 174.838 158.319 174.902 155.417L174.999 146.954V127.804C174.999 121.839 174.838 117.938 174.517 116.1C174.389 115.391 173.956 114.924 173.218 114.698C172.865 114.601 171.404 114.488 168.837 114.359L168.452 113.973V111.41L168.837 111.071C171.051 111.2 174.886 111.264 180.342 111.264C183.807 111.264 186.92 111.2 189.68 111.071C191.894 110.974 193.772 110.926 195.312 110.926C202.308 110.926 206.897 112.522 209.079 115.714C210.234 117.422 210.812 119.373 210.812 121.565C210.812 125.144 209.416 128.126 206.624 130.512C205.308 131.64 203.928 132.478 202.484 133.026C200.816 133.671 199.018 134.219 197.093 134.671C207.394 135.122 212.545 139.345 212.545 147.341C212.545 153.66 209.512 158.544 203.447 161.994ZM190.787 115.037C188.894 115.037 187.273 115.149 185.925 115.375C185.829 118.019 185.781 120.453 185.781 122.677V133.123C186.359 133.155 187.514 133.171 189.247 133.171C193.772 133.171 196.756 131.721 198.2 128.819C199.034 127.11 199.452 125.305 199.452 123.403C199.452 117.825 196.563 115.037 190.787 115.037ZM189.199 137.137C188.204 137.137 187.065 137.185 185.781 137.282V154.74C185.781 156.642 185.829 158.496 185.925 160.301C186.952 160.495 188.396 160.592 190.258 160.592C193.788 160.592 196.499 159.479 198.393 157.255C200.158 155.127 201.04 152.209 201.04 148.502C201.04 140.925 197.093 137.137 189.199 137.137ZM243.448 164.557C240.945 164.428 237.078 164.364 231.847 164.364C226.616 164.364 222.749 164.428 220.246 164.557L219.909 164.219V161.656L220.295 161.317C222.862 161.156 224.322 161.027 224.675 160.93C225.413 160.704 225.846 160.237 225.975 159.528C226.296 157.722 226.456 153.821 226.456 147.825V127.804C226.456 121.839 226.296 117.938 225.975 116.1C225.846 115.391 225.413 114.924 224.675 114.698C224.322 114.601 222.862 114.488 220.295 114.359L219.909 113.973V111.41L220.295 111.071C222.701 111.2 226.552 111.264 231.847 111.264C237.142 111.264 240.993 111.2 243.4 111.071L243.785 111.41V113.973L243.4 114.359C240.865 114.488 239.404 114.601 239.019 114.698C238.281 114.924 237.848 115.391 237.72 116.1C237.399 117.938 237.238 121.839 237.238 127.804V147.825C237.238 153.821 237.399 157.722 237.72 159.528C237.848 160.237 238.281 160.704 239.019 160.93C239.404 161.027 240.865 161.156 243.4 161.317L243.785 161.656V164.219L243.448 164.557ZM309.539 114.311C306.971 114.44 305.495 114.569 305.11 114.698C304.404 114.891 303.987 115.343 303.858 116.052C303.538 117.89 303.377 121.807 303.377 127.804V143.134C303.377 154.45 303.538 161.817 303.858 165.234L303.377 165.573C300.521 165.089 298.371 164.751 296.927 164.557C290.22 156.981 278.748 143.15 262.51 123.064V147.776C262.51 153.773 262.686 157.674 263.039 159.479C263.136 160.221 263.553 160.688 264.291 160.882C264.676 160.978 266.152 161.107 268.719 161.269L269.056 161.656V164.219L268.719 164.557C265.831 164.396 263.136 164.315 260.632 164.315C257.776 164.315 254.888 164.396 251.968 164.557L251.583 164.219V161.656L251.968 161.269C254.535 161.107 255.995 160.978 256.348 160.882C257.086 160.688 257.52 160.221 257.648 159.479C257.969 157.674 258.129 153.773 258.129 147.776V127.804C258.129 121.807 257.969 117.89 257.648 116.052C257.52 115.343 257.086 114.891 256.348 114.698C255.995 114.569 254.535 114.44 251.968 114.311L251.583 113.924V111.361L251.968 111.023C254.343 111.152 256.605 111.216 258.755 111.216C262.157 111.216 264.965 111.152 267.179 111.023C276.196 123.113 286.802 136.073 298.997 149.904V127.804C298.997 121.807 298.836 117.89 298.515 116.052C298.387 115.343 297.954 114.891 297.216 114.698C296.863 114.569 295.403 114.44 292.835 114.311L292.45 113.924V111.361L292.835 111.023C295.659 111.152 298.323 111.216 300.826 111.216C304.067 111.216 306.987 111.152 309.587 111.023L309.924 111.361V113.924L309.539 114.311Z" fill="#2C2E35"/>
<path fill-rule="evenodd" clip-rule="evenodd" d="M364.799 157.857C359.485 163.001 352.214 165.573 342.988 165.573C334.283 165.573 327.436 163.146 322.448 158.294C317.492 153.441 315.015 146.68 315.015 138.009C315.015 125.845 319.693 117.434 329.05 112.775C333.288 110.64 338.521 109.573 344.748 109.573C353.616 109.573 360.528 111.886 365.483 116.512C370.504 121.203 373.015 127.673 373.015 135.923C373.015 145.24 370.276 152.551 364.799 157.857ZM356.779 120.443C353.812 116.14 349.476 113.989 343.77 113.989C336.206 113.989 331.186 117.353 328.708 124.082C327.436 127.544 326.801 131.426 326.801 135.729C326.801 143.525 328.251 149.688 331.153 154.217C334.152 158.908 338.652 161.254 344.65 161.254C351.888 161.254 356.762 157.695 359.273 150.578C360.577 146.825 361.229 142.587 361.229 137.864C361.229 130.552 359.745 124.745 356.779 120.443Z" fill="#2C2E35"/>
</svg>
